<mxfile host="app.diagrams.net" agent="Mozilla/5.0 (Windows NT 10.0; Win64; x64) AppleWebKit/537.36 (KHTML, like Gecko) Chrome/131.0.0.0 Safari/537.36" version="26.0.5">
  <diagram name="Page-1" id="sVFzhKFsBR-r08r_NQjd">
    <mxGraphModel dx="880" dy="506" grid="1" gridSize="10" guides="1" tooltips="1" connect="1" arrows="1" fold="1" page="1" pageScale="1" pageWidth="850" pageHeight="1100" math="0" shadow="0">
      <root>
        <mxCell id="0" />
        <mxCell id="1" parent="0" />
        <mxCell id="kXDMXOlOpZS1ZC4ja2_J-3" value="" style="edgeStyle=orthogonalEdgeStyle;rounded=0;orthogonalLoop=1;jettySize=auto;html=1;" edge="1" parent="1" source="kXDMXOlOpZS1ZC4ja2_J-1" target="kXDMXOlOpZS1ZC4ja2_J-2">
          <mxGeometry relative="1" as="geometry" />
        </mxCell>
        <mxCell id="kXDMXOlOpZS1ZC4ja2_J-1" value="Start" style="ellipse;whiteSpace=wrap;html=1;" vertex="1" parent="1">
          <mxGeometry x="380" y="50" width="90" height="50" as="geometry" />
        </mxCell>
        <mxCell id="kXDMXOlOpZS1ZC4ja2_J-7" value="" style="edgeStyle=orthogonalEdgeStyle;rounded=0;orthogonalLoop=1;jettySize=auto;html=1;" edge="1" parent="1" source="kXDMXOlOpZS1ZC4ja2_J-2" target="kXDMXOlOpZS1ZC4ja2_J-5">
          <mxGeometry relative="1" as="geometry" />
        </mxCell>
        <mxCell id="kXDMXOlOpZS1ZC4ja2_J-2" value="a,b = 1&lt;div&gt;c = &#39;*&#39;&lt;/div&gt;&lt;div&gt;d=&#39; &#39;&lt;/div&gt;" style="shape=hexagon;perimeter=hexagonPerimeter2;whiteSpace=wrap;html=1;fixedSize=1;" vertex="1" parent="1">
          <mxGeometry x="365" y="130" width="120" height="80" as="geometry" />
        </mxCell>
        <mxCell id="kXDMXOlOpZS1ZC4ja2_J-8" value="" style="edgeStyle=orthogonalEdgeStyle;rounded=0;orthogonalLoop=1;jettySize=auto;html=1;" edge="1" parent="1" source="kXDMXOlOpZS1ZC4ja2_J-5" target="kXDMXOlOpZS1ZC4ja2_J-6">
          <mxGeometry relative="1" as="geometry" />
        </mxCell>
        <mxCell id="kXDMXOlOpZS1ZC4ja2_J-9" value="Y" style="edgeLabel;html=1;align=center;verticalAlign=middle;resizable=0;points=[];" vertex="1" connectable="0" parent="kXDMXOlOpZS1ZC4ja2_J-8">
          <mxGeometry x="-0.15" y="3" relative="1" as="geometry">
            <mxPoint as="offset" />
          </mxGeometry>
        </mxCell>
        <mxCell id="kXDMXOlOpZS1ZC4ja2_J-13" value="" style="edgeStyle=orthogonalEdgeStyle;rounded=0;orthogonalLoop=1;jettySize=auto;html=1;" edge="1" parent="1" source="kXDMXOlOpZS1ZC4ja2_J-5" target="kXDMXOlOpZS1ZC4ja2_J-12">
          <mxGeometry relative="1" as="geometry" />
        </mxCell>
        <mxCell id="kXDMXOlOpZS1ZC4ja2_J-14" value="N" style="edgeLabel;html=1;align=center;verticalAlign=middle;resizable=0;points=[];" vertex="1" connectable="0" parent="kXDMXOlOpZS1ZC4ja2_J-13">
          <mxGeometry x="-0.0316" y="1" relative="1" as="geometry">
            <mxPoint as="offset" />
          </mxGeometry>
        </mxCell>
        <mxCell id="kXDMXOlOpZS1ZC4ja2_J-5" value="a&amp;nbsp;&amp;nbsp;≤ 6" style="rhombus;whiteSpace=wrap;html=1;" vertex="1" parent="1">
          <mxGeometry x="385" y="250" width="80" height="80" as="geometry" />
        </mxCell>
        <mxCell id="kXDMXOlOpZS1ZC4ja2_J-11" value="" style="edgeStyle=orthogonalEdgeStyle;rounded=0;orthogonalLoop=1;jettySize=auto;html=1;" edge="1" parent="1" source="kXDMXOlOpZS1ZC4ja2_J-6" target="kXDMXOlOpZS1ZC4ja2_J-10">
          <mxGeometry relative="1" as="geometry" />
        </mxCell>
        <mxCell id="kXDMXOlOpZS1ZC4ja2_J-19" value="Y" style="edgeLabel;html=1;align=center;verticalAlign=middle;resizable=0;points=[];" vertex="1" connectable="0" parent="kXDMXOlOpZS1ZC4ja2_J-11">
          <mxGeometry x="0.4" relative="1" as="geometry">
            <mxPoint as="offset" />
          </mxGeometry>
        </mxCell>
        <mxCell id="kXDMXOlOpZS1ZC4ja2_J-6" value="a == 1 | a ==6" style="rhombus;whiteSpace=wrap;html=1;" vertex="1" parent="1">
          <mxGeometry x="385" y="370" width="80" height="80" as="geometry" />
        </mxCell>
        <mxCell id="kXDMXOlOpZS1ZC4ja2_J-17" value="" style="edgeStyle=orthogonalEdgeStyle;rounded=0;orthogonalLoop=1;jettySize=auto;html=1;" edge="1" parent="1" source="kXDMXOlOpZS1ZC4ja2_J-10" target="kXDMXOlOpZS1ZC4ja2_J-15">
          <mxGeometry relative="1" as="geometry" />
        </mxCell>
        <mxCell id="kXDMXOlOpZS1ZC4ja2_J-20" value="Y" style="edgeLabel;html=1;align=center;verticalAlign=middle;resizable=0;points=[];" vertex="1" connectable="0" parent="kXDMXOlOpZS1ZC4ja2_J-17">
          <mxGeometry x="0.2" y="-1" relative="1" as="geometry">
            <mxPoint as="offset" />
          </mxGeometry>
        </mxCell>
        <mxCell id="kXDMXOlOpZS1ZC4ja2_J-10" value="b&amp;nbsp;&amp;nbsp;≤&amp;nbsp; 5" style="rhombus;whiteSpace=wrap;html=1;" vertex="1" parent="1">
          <mxGeometry x="385" y="480" width="80" height="80" as="geometry" />
        </mxCell>
        <mxCell id="kXDMXOlOpZS1ZC4ja2_J-12" value="Stop" style="ellipse;whiteSpace=wrap;html=1;" vertex="1" parent="1">
          <mxGeometry x="560" y="265" width="80" height="50" as="geometry" />
        </mxCell>
        <mxCell id="kXDMXOlOpZS1ZC4ja2_J-18" value="" style="edgeStyle=orthogonalEdgeStyle;rounded=0;orthogonalLoop=1;jettySize=auto;html=1;" edge="1" parent="1" source="kXDMXOlOpZS1ZC4ja2_J-15" target="kXDMXOlOpZS1ZC4ja2_J-16">
          <mxGeometry relative="1" as="geometry" />
        </mxCell>
        <mxCell id="kXDMXOlOpZS1ZC4ja2_J-15" value="print c&lt;div&gt;print d&lt;/div&gt;" style="rounded=0;whiteSpace=wrap;html=1;" vertex="1" parent="1">
          <mxGeometry x="365" y="590" width="120" height="60" as="geometry" />
        </mxCell>
        <mxCell id="kXDMXOlOpZS1ZC4ja2_J-16" value="b++" style="rounded=0;whiteSpace=wrap;html=1;" vertex="1" parent="1">
          <mxGeometry x="365" y="680" width="120" height="60" as="geometry" />
        </mxCell>
        <mxCell id="kXDMXOlOpZS1ZC4ja2_J-21" value="" style="endArrow=classic;html=1;rounded=0;" edge="1" parent="1">
          <mxGeometry width="50" height="50" relative="1" as="geometry">
            <mxPoint x="290" y="710" as="sourcePoint" />
            <mxPoint x="290" y="520" as="targetPoint" />
          </mxGeometry>
        </mxCell>
      </root>
    </mxGraphModel>
  </diagram>
</mxfile>
